<?xml version="1.0" encoding="UTF-8"?>
<svg id="Layer_2" data-name="Layer 2" xmlns="http://www.w3.org/2000/svg" viewBox="0 0 580.38 605.56">
  <defs>
    <style>
      .cls-1 {
        fill: #fcd132;
      }
    </style>
  </defs>
  <g id="Layer_1-2" data-name="Layer 1">
    <path class="cls-1" d="m576.69,544.68v-.08l-13.58-202.15-.61-9.29L281.21,51.88c.54-2.53.77-5.07.77-7.76,0-24.32-19.72-44.12-44.05-44.12-2.69,0-5.3.22-7.82.76-18.19,3.23-32.55,17.66-35.62,35.84v.08c-.46,2.39-.69,4.91-.69,7.44,0,24.33,19.8,44.05,44.13,44.05,2.53,0,4.99-.22,7.37-.69l163.47,163.47c.08.08.16.16.23.23l25.63,25.64c-2.91-.16-5.9-.23-8.9-.23-19.65,0-38.61,3.23-56.33,9.29l-92.87-92.87c.46-2.46.68-4.99.68-7.6,0-24.33-19.8-44.12-44.05-44.12-2.61,0-5.22.22-7.68.68-18.19,3.15-32.62,17.58-35.68,35.84-.55,2.46-.77,4.99-.77,7.6,0,24.33,19.8,44.13,44.13,44.13,2.6,0,5.14-.23,7.59-.77l81.43,81.44c-14.28,10.36-26.94,22.79-37.54,36.83L87.5,149.89c.54-2.47.77-4.99.77-7.6,0-24.33-19.8-44.05-44.13-44.05-2.61,0-5.14.23-7.6.69C18.27,102.07,3.84,116.42.77,134.69c-.54,2.46-.77,4.99-.77,7.6,0,24.32,19.8,44.13,44.13,44.13,2.61,0,5.15-.23,7.6-.77l207.83,207.83c-6.75,18.65-10.44,38.69-10.44,59.64,0,1.45,0,2.91.08,4.38l-127.25-127.25c.54-2.46.77-5.06.77-7.67,0-24.33-19.72-44.05-44.05-44.05-2.61,0-5.21.22-7.68.77-18.26,3.14-32.69,17.49-35.76,35.76-.46,2.46-.69,4.99-.69,7.52,0,24.32,19.8,44.12,44.13,44.12,2.61,0,5.07-.22,7.52-.69l221.73,221.73,3.99.23,208.68,13.97,54.19,3.61c3.15.22,5.76-2.38,5.6-5.53l-3.68-55.34ZM237.92,58.86c-8.14,0-14.73-6.6-14.73-14.73s6.6-14.73,14.73-14.73,14.73,6.6,14.73,14.73-6.6,14.73-14.73,14.73m-4.76,141.3c-8.14,0-14.81-6.6-14.81-14.73s6.67-14.73,14.81-14.73,14.73,6.6,14.73,14.73-6.61,14.73-14.73,14.73m-189.03-43.13c-8.14,0-14.73-6.6-14.73-14.73s6.6-14.73,14.73-14.73,14.73,6.6,14.73,14.73-6.6,14.73-14.73,14.73m34.53,180.36c-8.14,0-14.81-6.67-14.81-14.81s6.67-14.73,14.81-14.73,14.73,6.6,14.73,14.73-6.6,14.81-14.73,14.81m238.46,188.03c-13.9-20.72-21.95-45.58-21.95-72.29,0-71.91,58.56-130.47,130.56-130.47,33.69,0,64.54,12.89,87.64,34l8.67,129.48c-2.38-.39-4.83-.55-7.37-.55-31.32,0-56.71,25.4-56.71,56.8,0,1.61.07,3.15.22,4.76l-127.94-8.59-13.13-13.13Z"/>
  </g>
</svg>