<?xml version="1.0" encoding="UTF-8"?>
<svg id="Layer_2" data-name="Layer 2" xmlns="http://www.w3.org/2000/svg" viewBox="0 0 2567.88 285.26">
  <defs>
    <style>
      .cls-1 {
        fill: #150d28;
      }

      .cls-2 {
        fill: #fcd132;
      }
    </style>
  </defs>
  <g id="Layer_1-2" data-name="Layer 1">
    <g>
      <path class="cls-2" d="m271.66,256.58v-.04l-6.4-95.23-.29-4.37L132.47,24.44c.25-1.19.36-2.39.36-3.65,0-11.46-9.29-20.79-20.75-20.79-1.27,0-2.5.11-3.69.36-8.57,1.52-15.33,8.32-16.78,16.88v.04c-.22,1.12-.33,2.31-.33,3.51,0,11.46,9.33,20.75,20.79,20.75,1.19,0,2.35-.11,3.47-.33l77.01,77.01s.07.07.11.11l12.07,12.08c-1.37-.07-2.78-.11-4.19-.11-9.26,0-18.19,1.52-26.54,4.37l-43.75-43.75c.22-1.16.32-2.35.32-3.58,0-11.46-9.33-20.79-20.75-20.79-1.23,0-2.46.11-3.62.32-8.57,1.48-15.36,8.28-16.81,16.88-.26,1.16-.36,2.35-.36,3.58,0,11.46,9.33,20.79,20.79,20.79,1.23,0,2.42-.11,3.58-.36l38.36,38.36c-6.72,4.88-12.69,10.74-17.68,17.35L41.22,70.61c.25-1.16.36-2.35.36-3.58,0-11.46-9.33-20.75-20.79-20.75-1.23,0-2.42.11-3.58.33C8.61,48.08,1.81,54.84.36,63.45c-.25,1.16-.36,2.35-.36,3.58,0,11.46,9.33,20.79,20.79,20.79,1.23,0,2.42-.11,3.58-.36l97.9,97.9c-3.18,8.79-4.92,18.22-4.92,28.09,0,.68,0,1.37.04,2.06l-59.95-59.95c.25-1.16.36-2.38.36-3.61,0-11.46-9.29-20.75-20.75-20.75-1.23,0-2.46.11-3.62.36-8.6,1.48-15.4,8.24-16.85,16.85-.22,1.16-.33,2.35-.33,3.54,0,11.46,9.33,20.79,20.79,20.79,1.23,0,2.39-.11,3.54-.33l104.45,104.45,1.88.11,98.3,6.58,25.53,1.7c1.48.11,2.71-1.12,2.64-2.6l-1.74-26.07ZM112.08,27.73c-3.83,0-6.94-3.11-6.94-6.94s3.11-6.94,6.94-6.94,6.94,3.11,6.94,6.94-3.11,6.94-6.94,6.94m-2.24,66.56c-3.83,0-6.98-3.11-6.98-6.94s3.14-6.94,6.98-6.94,6.94,3.11,6.94,6.94-3.11,6.94-6.94,6.94m-89.05-20.32c-3.83,0-6.94-3.11-6.94-6.94s3.11-6.94,6.94-6.94,6.94,3.11,6.94,6.94-3.11,6.94-6.94,6.94m16.27,84.96c-3.83,0-6.98-3.14-6.98-6.98s3.14-6.94,6.98-6.94,6.94,3.11,6.94,6.94-3.11,6.98-6.94,6.98m112.33,88.58c-6.55-9.76-10.34-21.47-10.34-34.06,0-33.88,27.59-61.46,61.5-61.46,15.87,0,30.4,6.07,41.29,16.02l4.09,60.99c-1.12-.18-2.28-.26-3.47-.26-14.75,0-26.72,11.97-26.72,26.76,0,.76.03,1.48.11,2.24l-60.27-4.05-6.18-6.18Z"/>
      <path class="cls-1" d="m562.2,269.89c-27.43,0-49.61-8.22-66.69-24.64-17.08-16.42-25.62-38.11-25.62-65.05s8.21-47.31,24.64-64.39c16.43-17.08,37.95-25.62,64.39-25.62s48.62,8.21,64.39,24.8c15.77,16.59,23.65,37.45,23.65,62.58,0,6.9-.33,12.15-.98,15.77h-132.23c1.48,11.67,6.41,21.02,14.78,28.09,8.38,7.06,19.88,10.51,34.66,10.51,19.71,0,33.51-7.56,41.39-22.5l40.08,11.82c-5.58,12.82-15.44,24.15-29.73,33.84-14.29,9.69-31.7,14.62-52.23,14.62l-.49.17Zm41.23-104.3c-1.15-10.68-5.75-19.71-13.8-26.94-8.05-7.23-18.4-10.84-31.21-10.84s-22.5,3.78-30.72,11.17c-8.21,7.39-12.98,16.26-14.29,26.61h90.01Z"/>
      <path class="cls-1" d="m742.42,269.89c-23.82,0-43.69-8.54-59.79-25.79-16.1-17.25-24.15-38.6-24.15-64.06s8.05-47.31,24.15-64.39c16.1-17.08,36.14-25.62,59.95-25.62s41.56,8.37,54.7,25.29v-20.53h44.85v170.17h-44.85v-20.86c-13.14,17.08-31.37,25.62-54.7,25.62l-.16.17Zm7.72-40.08c13.63,0,25.13-4.76,34.49-14.29,9.36-9.53,13.96-21.52,13.96-36.14s-4.6-26.12-13.96-35.48c-9.36-9.36-20.86-14.13-34.49-14.13s-25.46,4.6-34.49,13.96c-9.03,9.36-13.47,21.35-13.47,35.97s4.44,26.94,13.47,36.3c9.03,9.36,20.53,14.13,34.49,14.13v-.33Z"/>
      <path class="cls-1" d="m953.2,270.22c-26.12,0-47.64-8.71-64.72-25.95-17.08-17.25-25.63-38.76-25.63-64.39s8.54-46.98,25.63-64.06c17.08-17.08,38.6-25.62,64.39-25.62,21.85,0,40.25,5.75,55.19,17.25,14.95,11.49,24.31,24.31,28.09,38.6l-41.4,11.83c-1.97-7.72-6.73-14.29-14.29-19.88-7.56-5.59-16.59-8.38-27.27-8.38-13.64,0-24.8,4.93-33.35,14.62-8.54,9.69-12.81,21.52-12.81,35.48s4.27,25.46,12.98,35.48c8.71,10.02,19.88,14.95,33.51,14.95,10.51,0,19.55-2.63,27.27-8.05,7.72-5.42,12.48-11.83,14.45-19.22l41.39,11.49c-3.77,14.62-12.98,27.44-27.76,38.61-14.78,11.17-33.02,16.75-54.86,16.75l-.82.49Z"/>
      <path class="cls-1" d="m1154.61,90.19c21.84,0,38.44,6.74,49.93,20.21,11.5,13.47,17.25,31.86,17.25,55.19v99.54h-44.51v-91.17c0-13.3-3.12-23.65-9.2-31.21-6.08-7.56-15.11-11.33-27.1-11.33s-22.18,4.44-29.73,13.47c-7.55,9.04-11.33,21.02-11.33,35.97v84.1h-44.35V19.4h44.35v96.91c13.63-17.58,31.86-26.28,54.7-26.28v.16Z"/>
      <path class="cls-1" d="m1603.55,277.41c-20.2,0-37.94-5.26-53.22-15.61-15.27-10.35-25.13-22.66-29.56-36.96l40.08-11.66c2.96,8.37,8.38,15.11,16.26,20.37,7.89,5.26,17.25,7.89,28.25,7.89,8.37,0,15.11-1.64,20.37-5.09,5.25-3.45,7.88-7.55,7.88-12.48,0-7.39-6.24-12.98-18.89-16.75l-43.37-12.82c-28.08-8.05-42.05-23.15-42.05-45.33,0-14.13,6.73-26.12,20.04-36.14,13.31-10.02,29.41-14.95,48.29-14.95,17.91,0,33.67,3.94,47.14,11.83,13.47,7.89,23,18.24,28.42,31.21l-39.42,11.5c-7.39-13.3-19.55-19.88-36.31-19.88-6.73,0-12.48,1.48-17.25,4.6-4.76,3.12-7.06,6.73-7.06,10.84,0,6.24,4.76,10.68,14.13,13.47l42.38,12.15c15.27,4.44,27.1,10.18,35.48,17.08,8.38,6.9,12.48,17.25,12.48,31.21,0,16.09-6.9,29.4-20.7,39.91-13.79,10.52-31.37,15.77-52.89,15.77l-.49-.16Z"/>
      <path class="cls-1" d="m1762.92,277.41c-20.2,0-37.94-5.26-53.22-15.61-15.27-10.35-25.13-22.66-29.56-36.96l40.08-11.66c2.96,8.37,8.38,15.11,16.26,20.37,7.89,5.26,17.25,7.89,28.25,7.89,8.37,0,15.11-1.64,20.37-5.09,5.25-3.45,7.88-7.55,7.88-12.48,0-7.39-6.24-12.98-18.89-16.75l-43.37-12.82c-28.08-8.05-42.05-23.15-42.05-45.33,0-14.13,6.73-26.12,20.04-36.14,13.31-10.02,29.41-14.95,48.29-14.95,17.91,0,33.67,3.94,47.14,11.83,13.47,7.89,23,18.24,28.42,31.21l-39.42,11.5c-7.39-13.3-19.55-19.88-36.31-19.88-6.73,0-12.48,1.48-17.25,4.6-4.76,3.12-7.06,6.73-7.06,10.84,0,6.24,4.76,10.68,14.13,13.47l42.38,12.15c15.27,4.44,27.1,10.18,35.48,17.08,8.38,6.9,12.48,17.25,12.48,31.21,0,16.09-6.9,29.4-20.7,39.91-13.79,10.52-31.37,15.77-52.89,15.77l-.49-.16Z"/>
      <path class="cls-1" d="m1881.55,78.99c-7.39,0-13.63-2.46-18.72-7.56-5.09-5.09-7.72-11.33-7.72-18.72s2.63-13.3,7.72-18.24c5.09-4.93,11.34-7.39,18.72-7.39s13.64,2.47,18.72,7.39c5.09,4.93,7.72,11,7.72,18.24s-2.63,13.63-7.72,18.56c-5.09,4.93-11.33,7.39-18.72,7.39v.33Zm-23,23.98h44.68v170.17h-44.68V102.97Z"/>
      <path class="cls-1" d="m2002.48,277.41c-20.2,0-37.94-5.26-53.22-15.61-15.27-10.35-25.13-22.66-29.56-36.96l40.08-11.66c2.96,8.37,8.38,15.11,16.26,20.37,7.89,5.26,17.25,7.89,28.25,7.89,8.37,0,15.11-1.64,20.37-5.09,5.25-3.45,7.88-7.55,7.88-12.48,0-7.39-6.24-12.98-18.89-16.75l-43.37-12.82c-28.08-8.05-42.05-23.15-42.05-45.33,0-14.13,6.73-26.12,20.04-36.14,13.3-10.02,29.4-14.95,48.29-14.95,17.91,0,33.67,3.94,47.14,11.83,13.47,7.89,23,18.24,28.42,31.21l-39.42,11.5c-7.39-13.3-19.55-19.88-36.31-19.88-6.73,0-12.48,1.48-17.25,4.6-4.76,3.12-7.06,6.73-7.06,10.84,0,6.24,4.76,10.68,14.13,13.47l42.38,12.15c15.27,4.44,27.1,10.18,35.48,17.08,8.38,6.9,12.48,17.25,12.48,31.21,0,16.09-6.9,29.4-20.7,39.91-13.79,10.52-31.37,15.77-52.89,15.77l-.49-.16Z"/>
      <path class="cls-1" d="m2203.41,267.39c-13.47,5.42-26.78,8.05-39.75,8.05-18.89,0-33.02-5.42-42.54-16.09-9.53-10.68-14.29-25.63-14.29-44.68v-73.09h-28.58v-38.93h28.58v-55.19h44.68v55.19h49.77v38.93h-49.77v73.09c0,14.3,6.9,21.52,20.86,21.52,7.23,0,13.96-1.64,20.2-4.77l10.84,35.97Z"/>
      <polygon points="301.2 18.06 301.2 59.41 376.92 59.41 376.92 267.2 425.09 267.2 425.09 59.41 500.81 59.41 500.81 18.06 301.2 18.06"/>
      <path d="m1432.24,17.53l-.49-1.38h-57.72l-87.71,249.14h51.79l20.26-60.41h89.13l20.3,60.41h51.79l-87.34-247.75Zm-60.53,147.55l31.18-92.96,31.23,92.96h-62.41Z"/>
      <g>
        <path class="cls-2" d="m2407.26,24h-57.72l-87.71,249.14h51.79l20.26-60.41h89.13l20.3,60.41h51.79l-87.34-247.75-.49-1.38Zm-60.03,148.94l31.18-92.96,31.23,92.96h-62.41Z"/>
        <rect class="cls-2" x="2519.36" y="24" width="48.52" height="249.14"/>
      </g>
    </g>
  </g>
</svg>